M48
; DRILL file {KiCad 9.0.1} date 2025-05-06T21:02:17-0400
; FORMAT={-:-/ absolute / inch / decimal}
; #@! TF.CreationDate,2025-05-06T21:02:17-04:00
; #@! TF.GenerationSoftware,Kicad,Pcbnew,9.0.1
; #@! TF.FileFunction,Plated,1,2,PTH
FMAT,2
INCH
; #@! TA.AperFunction,Plated,PTH,ComponentDrill
T1C0.0394
%
G90
G05
T1
X0.2035Y1.6197
X0.2035Y1.5197
X0.2035Y1.4197
X0.2035Y1.3197
X0.2035Y1.2197
X0.2035Y0.9063
X0.2035Y0.8063
X0.2035Y0.7063
X0.2035Y0.6063
X0.2035Y0.5063
X0.2535Y1.9933
X0.2535Y1.9067
X0.2535Y0.2193
X0.2535Y0.1327
X0.3035Y1.6063
X0.3035Y1.5063
X0.3035Y1.4063
X0.3035Y1.3063
X0.3035Y1.2063
X0.3035Y0.9197
X0.3035Y0.8197
X0.3035Y0.7197
X0.3035Y0.6197
X0.3035Y0.5197
X0.3535Y2.0067
X0.3535Y1.8933
X0.3535Y0.2327
X0.3535Y0.1193
X0.4035Y1.6197
X0.4035Y1.5197
X0.4035Y1.4197
X0.4035Y1.3197
X0.4035Y1.2197
X0.4035Y0.9063
X0.4035Y0.8063
X0.4035Y0.7063
X0.4035Y0.6063
X0.4035Y0.5063
X0.4535Y1.9933
X0.4535Y1.9067
X0.4535Y0.2193
X0.4535Y0.1327
X0.5035Y1.6063
X0.5035Y1.5063
X0.5035Y1.4063
X0.5035Y1.3063
X0.5035Y1.2063
X0.5035Y0.9197
X0.5035Y0.8197
X0.5035Y0.7197
X0.5035Y0.6197
X0.5035Y0.5197
X0.5535Y2.0067
X0.5535Y1.8933
X0.5535Y0.2327
X0.5535Y0.1193
X0.6035Y1.6197
X0.6035Y1.5197
X0.6035Y1.4197
X0.6035Y1.3197
X0.6035Y1.2197
X0.6035Y0.9063
X0.6035Y0.8063
X0.6035Y0.7063
X0.6035Y0.6063
X0.6035Y0.5063
X0.6535Y1.9067
X0.6535Y0.1327
X0.6602Y2.0
X0.6602Y0.226
X0.7035Y1.6063
X0.7035Y1.5063
X0.7035Y1.4063
X0.7035Y1.3063
X0.7035Y1.2063
X0.7035Y0.9197
X0.7035Y0.8197
X0.7035Y0.7197
X0.7035Y0.6197
X0.7035Y0.5197
X0.8035Y1.6197
X0.8035Y1.5197
X0.8035Y1.4197
X0.8035Y1.3197
X0.8035Y1.2197
X0.8035Y0.9063
X0.8035Y0.8063
X0.8035Y0.7063
X0.8035Y0.6063
X0.8035Y0.5063
X0.8535Y2.0067
X0.8535Y1.8933
X0.8535Y0.2327
X0.8535Y0.1193
X0.9035Y1.6063
X0.9035Y1.5063
X0.9035Y1.4063
X0.9035Y1.3063
X0.9035Y1.2063
X0.9035Y0.9197
X0.9035Y0.8197
X0.9035Y0.7197
X0.9035Y0.6197
X0.9035Y0.5197
X0.9535Y1.9933
X0.9535Y1.9067
X0.9535Y0.2193
X0.9535Y0.1327
X1.0035Y1.6197
X1.0035Y1.5197
X1.0035Y1.4197
X1.0035Y1.3197
X1.0035Y1.2197
X1.0035Y0.9063
X1.0035Y0.8063
X1.0035Y0.7063
X1.0035Y0.6063
X1.0035Y0.5063
X1.0535Y2.0067
X1.0535Y1.8933
X1.0535Y0.2327
X1.0535Y0.1193
X1.1035Y1.6063
X1.1035Y1.5063
X1.1035Y1.4063
X1.1035Y1.3063
X1.1035Y1.2063
X1.1035Y0.9197
X1.1035Y0.8197
X1.1035Y0.7197
X1.1035Y0.6197
X1.1035Y0.5197
X1.1535Y1.9933
X1.1535Y1.9067
X1.1535Y0.2193
X1.1535Y0.1327
X1.2035Y1.6197
X1.2035Y1.5197
X1.2035Y1.4197
X1.2035Y1.3197
X1.2035Y1.2197
X1.2035Y0.9063
X1.2035Y0.8063
X1.2035Y0.7063
X1.2035Y0.6063
X1.2035Y0.5063
X1.2535Y2.0067
X1.2535Y0.2327
X1.2602Y1.9
X1.2602Y0.126
X1.3035Y1.6063
X1.3035Y1.5063
X1.3035Y1.4063
X1.3035Y1.3063
X1.3035Y1.2063
X1.3035Y0.9197
X1.3035Y0.8197
X1.3035Y0.7197
X1.3035Y0.6197
X1.3035Y0.5197
X1.4035Y1.6197
X1.4035Y1.5197
X1.4035Y1.4197
X1.4035Y1.3197
X1.4035Y1.2197
X1.4035Y0.9063
X1.4035Y0.8063
X1.4035Y0.7063
X1.4035Y0.6063
X1.4035Y0.5063
X1.4535Y1.9933
X1.4535Y1.9067
X1.4535Y0.2193
X1.4535Y0.1327
X1.5035Y1.6063
X1.5035Y1.5063
X1.5035Y1.4063
X1.5035Y1.3063
X1.5035Y1.2063
X1.5035Y0.9197
X1.5035Y0.8197
X1.5035Y0.7197
X1.5035Y0.6197
X1.5035Y0.5197
X1.5535Y2.0067
X1.5535Y1.8933
X1.5535Y0.2327
X1.5535Y0.1193
X1.6035Y1.6197
X1.6035Y1.5197
X1.6035Y1.4197
X1.6035Y1.3197
X1.6035Y1.2197
X1.6035Y0.9063
X1.6035Y0.8063
X1.6035Y0.7063
X1.6035Y0.6063
X1.6035Y0.5063
X1.6535Y1.9933
X1.6535Y1.9067
X1.6535Y0.2193
X1.6535Y0.1327
X1.7035Y1.6063
X1.7035Y1.5063
X1.7035Y1.4063
X1.7035Y1.3063
X1.7035Y1.2063
X1.7035Y0.9197
X1.7035Y0.8197
X1.7035Y0.7197
X1.7035Y0.6197
X1.7035Y0.5197
X1.7535Y2.0067
X1.7535Y1.8933
X1.7535Y0.2327
X1.7535Y0.1193
X1.8035Y1.6197
X1.8035Y1.5197
X1.8035Y1.4197
X1.8035Y1.3197
X1.8035Y1.2197
X1.8035Y0.9063
X1.8035Y0.8063
X1.8035Y0.7063
X1.8035Y0.6063
X1.8035Y0.5063
X1.8535Y1.9067
X1.8535Y0.1327
X1.8602Y2.0
X1.8602Y0.226
X1.9035Y1.6063
X1.9035Y1.5063
X1.9035Y1.4063
X1.9035Y1.3063
X1.9035Y1.2063
X1.9035Y0.9197
X1.9035Y0.8197
X1.9035Y0.7197
X1.9035Y0.6197
X1.9035Y0.5197
X2.0035Y1.6197
X2.0035Y1.5197
X2.0035Y1.4197
X2.0035Y1.3197
X2.0035Y1.2197
X2.0035Y0.9063
X2.0035Y0.8063
X2.0035Y0.7063
X2.0035Y0.6063
X2.0035Y0.5063
X2.0535Y2.0067
X2.0535Y1.8933
X2.0535Y0.2327
X2.0535Y0.1193
X2.1035Y1.6063
X2.1035Y1.5063
X2.1035Y1.4063
X2.1035Y1.3063
X2.1035Y1.2063
X2.1035Y0.9197
X2.1035Y0.8197
X2.1035Y0.7197
X2.1035Y0.6197
X2.1035Y0.5197
X2.1535Y1.9933
X2.1535Y1.9067
X2.1535Y0.2193
X2.1535Y0.1327
X2.2035Y1.6197
X2.2035Y1.5197
X2.2035Y1.4197
X2.2035Y1.3197
X2.2035Y1.2197
X2.2035Y0.9063
X2.2035Y0.8063
X2.2035Y0.7063
X2.2035Y0.6063
X2.2035Y0.5063
X2.2535Y2.0067
X2.2535Y1.8933
X2.2535Y0.2327
X2.2535Y0.1193
X2.3035Y1.6063
X2.3035Y1.5063
X2.3035Y1.4063
X2.3035Y1.3063
X2.3035Y1.2063
X2.3035Y0.9197
X2.3035Y0.8197
X2.3035Y0.7197
X2.3035Y0.6197
X2.3035Y0.5197
X2.3535Y1.9933
X2.3535Y1.9067
X2.3535Y0.2193
X2.3535Y0.1327
X2.4035Y1.6197
X2.4035Y1.5197
X2.4035Y1.4197
X2.4035Y1.3197
X2.4035Y1.2197
X2.4035Y0.9063
X2.4035Y0.8063
X2.4035Y0.7063
X2.4035Y0.6063
X2.4035Y0.5063
X2.4535Y2.0067
X2.4535Y0.2327
X2.4602Y1.9
X2.4602Y0.126
X2.5035Y1.6063
X2.5035Y1.5063
X2.5035Y1.4063
X2.5035Y1.3063
X2.5035Y1.2063
X2.5035Y0.9197
X2.5035Y0.8197
X2.5035Y0.7197
X2.5035Y0.6197
X2.5035Y0.5197
X2.6035Y1.6197
X2.6035Y1.5197
X2.6035Y1.4197
X2.6035Y1.3197
X2.6035Y1.2197
X2.6035Y0.9063
X2.6035Y0.8063
X2.6035Y0.7063
X2.6035Y0.6063
X2.6035Y0.5063
X2.6535Y1.9933
X2.6535Y1.9067
X2.6535Y0.2193
X2.6535Y0.1327
X2.7035Y1.6063
X2.7035Y1.5063
X2.7035Y1.4063
X2.7035Y1.3063
X2.7035Y1.2063
X2.7035Y0.9197
X2.7035Y0.8197
X2.7035Y0.7197
X2.7035Y0.6197
X2.7035Y0.5197
X2.7535Y2.0067
X2.7535Y1.8933
X2.7535Y0.2327
X2.7535Y0.1193
X2.8035Y1.6197
X2.8035Y1.5197
X2.8035Y1.4197
X2.8035Y1.3197
X2.8035Y1.2197
X2.8035Y0.9063
X2.8035Y0.8063
X2.8035Y0.7063
X2.8035Y0.6063
X2.8035Y0.5063
X2.8535Y1.9933
X2.8535Y1.9067
X2.8535Y0.2193
X2.8535Y0.1327
X2.9035Y1.6063
X2.9035Y1.5063
X2.9035Y1.4063
X2.9035Y1.3063
X2.9035Y1.2063
X2.9035Y0.9197
X2.9035Y0.8197
X2.9035Y0.7197
X2.9035Y0.6197
X2.9035Y0.5197
X2.9535Y2.0067
X2.9535Y1.8933
X2.9535Y0.2327
X2.9535Y0.1193
X3.0035Y1.6197
X3.0035Y1.5197
X3.0035Y1.4197
X3.0035Y1.3197
X3.0035Y1.2197
X3.0035Y0.9063
X3.0035Y0.8063
X3.0035Y0.7063
X3.0035Y0.6063
X3.0035Y0.5063
X3.0535Y1.9067
X3.0535Y0.1327
X3.0602Y2.0
X3.0602Y0.226
X3.1035Y1.6063
X3.1035Y1.5063
X3.1035Y1.4063
X3.1035Y1.3063
X3.1035Y1.2063
X3.1035Y0.9197
X3.1035Y0.8197
X3.1035Y0.7197
X3.1035Y0.6197
X3.1035Y0.5197
M30
